<svg width="519" height="519" viewBox="0 0 519 519" fill="none" xmlns="http://www.w3.org/2000/svg">
<path d="M51.6011 68.3987C88.7367 57.8277 126.915 81.2232 136.873 120.652L213.807 425.342C223.766 464.774 201.733 505.308 164.593 515.88C127.453 526.452 89.2936 503.064 79.3275 463.634L2.39282 158.944C-7.56542 119.512 14.4675 78.9775 51.6011 68.3987Z" fill="url(#paint0_linear_2770_4889)"/>
<path d="M387.942 515.814C379.736 518.51 371.07 519.511 362.468 518.756C353.866 518 345.506 515.505 337.894 511.419C330.282 507.334 323.577 501.745 318.184 494.989C312.791 488.233 308.822 480.451 306.519 472.114L202.044 108.34C197.193 91.2121 199.122 72.87 207.43 57.1304C215.737 41.3908 229.783 29.4658 246.645 23.8366C254.849 21.141 263.514 20.1406 272.116 20.8959C280.717 21.6513 289.076 24.1467 296.687 28.2311C304.298 32.3156 311.003 37.9042 316.395 44.659C321.788 51.4137 325.757 59.1941 328.062 67.5294L432.529 431.306C437.381 448.433 435.455 466.774 427.15 482.515C418.845 498.255 404.802 510.182 387.942 515.814Z" fill="url(#paint1_linear_2770_4889)"/>
<path d="M353.023 510.87C315.572 500.21 293.345 459.334 303.402 419.579L380.98 112.374C391.022 72.6153 429.516 49.0272 466.96 59.6852C504.405 70.3432 526.639 111.222 516.582 150.977L439.014 458.176C428.964 497.932 390.469 521.521 353.023 510.87Z" fill="url(#paint2_linear_2770_4889)"/>
<path d="M278.358 3.05867C313.049 14.3286 332.567 53.303 321.966 90.1213L213.024 468.461C202.423 505.279 165.715 526.002 131.049 514.748C96.3826 503.494 76.8358 464.515 87.4564 427.703L196.38 49.3535C206.989 12.5375 243.697 -8.18505 278.358 3.05867Z" fill="url(#paint3_linear_2770_4889)"/>
<defs>
<linearGradient id="paint0_linear_2770_4889" x1="202.41" y1="465.543" x2="265.728" y2="59.685" gradientUnits="userSpaceOnUse">
<stop stop-color="#FA541C"/>
<stop offset="1" stop-color="#D62828"/>
</linearGradient>
<linearGradient id="paint1_linear_2770_4889" x1="202.41" y1="465.543" x2="265.728" y2="59.685" gradientUnits="userSpaceOnUse">
<stop stop-color="#FA541C"/>
<stop offset="1" stop-color="#D62828"/>
</linearGradient>
<linearGradient id="paint2_linear_2770_4889" x1="202.41" y1="465.543" x2="265.728" y2="59.685" gradientUnits="userSpaceOnUse">
<stop stop-color="#FA541C"/>
<stop offset="1" stop-color="#D62828"/>
</linearGradient>
<linearGradient id="paint3_linear_2770_4889" x1="202.41" y1="465.543" x2="265.728" y2="59.685" gradientUnits="userSpaceOnUse">
<stop stop-color="#FA541C"/>
<stop offset="1" stop-color="#D62828"/>
</linearGradient>
</defs>
</svg>